# xmcd CD database file
#
# Track frame offsets:
#	150
#	18614
#	25715
#	38854
#	51223
#	63876
#	80406
#	87481
#	105128
#	118046
#	131822
#	140149
#	150349
#	167775
#	183688
#	199094
#	214016
#
# Disc length: 3093 seconds
#
# Revision: 0
# Processed by: cddbd v1.5PL3 Copyright (c) Steve Scherf et al.
# Submitted via: CDex 1.51
#
DISCID=e80c1311
DTITLE=Sojiro - Heart Obtained  Vol 04
DYEAR=1991
DGENRE=New Age
TTITLE0=Song of Lake Biwa
TTITLE1=Spring
TTITLE2=Birthmark
TTITLE3=Song of the Sakura shellfish
TTITLE4=Basho Cloth
TTITLE5=Lullaby of Taketa
TTITLE6=Cradle
TTITLE7=Lullaby of Shimabara District
TTITLE8=Lullaby of Itsuki
TTITLE9=The First Love
TTITLE10=Truth Ball
TTITLE11=Narayama
TTITLE12=To Far Friend
TTITLE13=of Reluctance to Part
TTITLE14=It is You about Grass
TTITLE15=Lullaby of Chugoku District
TTITLE16=Elegy of Shichirigahama
EXTD=YEAR: 1991
EXTT0=
EXTT1=
EXTT2=
EXTT3=
EXTT4=
EXTT5=
EXTT6=
EXTT7=
EXTT8=
EXTT9=
EXTT10=
EXTT11=
EXTT12=
EXTT13=
EXTT14=
EXTT15=
EXTT16=
PLAYORDER=
